<svg width="512" height="512" viewBox="0 0 512 512" style="color:#d9d9d9" xmlns="http://www.w3.org/2000/svg" class="h-full w-full"><rect width="512" height="512" x="0" y="0" rx="30" fill="transparent" stroke="transparent" stroke-width="0" stroke-opacity="100%" paint-order="stroke"></rect><svg width="512px" height="512px" viewBox="0 0 24 24" fill="#d9d9d9" x="0" y="0" role="img" style="display:inline-block;vertical-align:middle" xmlns="http://www.w3.org/2000/svg"><g fill="#d9d9d9"><path fill="currentColor" fill-rule="evenodd" d="M13.354 8.75H4a.75.75 0 0 1 0-1.5h9.354a2.751 2.751 0 0 1 5.293 0H20a.75.75 0 0 1 0 1.5h-1.354a2.751 2.751 0 0 1-5.293 0ZM14.75 8a1.25 1.25 0 1 1 2.5 0a1.25 1.25 0 0 1-2.5 0Zm-4.104 8.75H20a.75.75 0 0 0 0-1.5h-9.354a2.751 2.751 0 0 0-5.292 0H4a.75.75 0 0 0 0 1.5h1.354a2.751 2.751 0 0 0 5.292 0ZM6.75 16a1.25 1.25 0 1 1 2.5 0a1.25 1.25 0 0 1-2.5 0Z" clip-rule="evenodd"/></g></svg></svg>